<?xml version="1.0" encoding="UTF-8"?>
<svg id="a" data-name="Camada 1" xmlns="http://www.w3.org/2000/svg" viewBox="0 0 1024 768">
  <rect width="1024" height="768" fill="#e30613" stroke="#1d1d1b" stroke-miterlimit="10"/>
  <g>
    <path d="m0,284.53h43.11c7.54,19.64,14.66,40.22,21.36,61.74,6.7,21.52,12,41.2,15.9,59.01h1.56c3.51-16,8.22-33.32,14.14-51.99,5.92-18.66,12.97-39.7,21.17-63.11.65-1.82,1.3-3.71,1.95-5.66h42.92v136.36h-34.72v-70.81c0-7.8.45-14.82,1.37-21.07.26-1.3.45-2.54.59-3.71h-1.56l-31.21,95.59h-31.02l-31.02-95.59h-1.37c.13,1.3.32,2.67.58,4.1.26,2.6.52,5.6.78,8.98.26,3.38.39,7.22.39,11.51v71.01H0v-136.36Z" fill="#5bbba4" stroke-width="0"/>
    <path d="m181.03,284.53h108.07v35.51h-71.2v23.8h59.3v15.8l-59.3-.19v26.33h71.79v35.11h-108.66v-136.36Z" fill="#5bbba4" stroke-width="0"/>
    <path d="m327.53,417.57c-9.89-4.55-17.33-11.09-22.34-19.6-5.01-8.52-7.58-18.63-7.71-30.33l31.6-5.85c.26,5.34,1.69,9.92,4.29,13.75,2.6,3.84,6.5,6.86,11.71,9.07,5.2,2.21,11.57,3.32,19.12,3.32,5.33,0,9.69-.62,13.07-1.85,3.38-1.23,5.85-2.93,7.41-5.07,1.56-2.15,2.34-4.58,2.34-7.32s-.81-4.78-2.44-6.53c-1.63-1.76-4.42-3.22-8.39-4.39-3.97-1.17-9.72-2.34-17.26-3.51-13.66-1.95-24.61-4.68-32.87-8.19-8.26-3.51-14.24-7.74-17.95-12.68-3.71-4.94-5.56-10.93-5.56-17.95,0-12.74,5.1-22.56,15.31-29.46,10.21-6.89,23.7-10.34,40.48-10.34,11.96,0,22.5,1.75,31.6,5.27,9.1,3.51,16.48,9.27,22.14,17.26,5.66,8,8.94,18.7,9.85,32.09l-32.77,6.83c.26-6.11-1.11-11.05-4.1-14.83-2.99-3.77-6.99-6.44-12-8-5.01-1.56-10.57-2.34-16.68-2.34-6.63,0-11.58,1.17-14.83,3.51-3.25,2.34-4.88,5.4-4.88,9.17,0,2.34.62,4.32,1.85,5.95,1.23,1.63,3.67,3.09,7.32,4.39,3.64,1.3,8.84,2.47,15.61,3.51,14.83,2.08,26.6,4.88,35.31,8.39,8.71,3.51,14.99,7.7,18.82,12.58,3.83,4.88,5.76,10.89,5.76,18.04,0,8.85-2.57,16.42-7.71,22.73-5.14,6.31-12.09,11.09-20.87,14.34-8.78,3.25-18.57,4.88-29.36,4.88-14.05,0-26.01-2.28-35.89-6.83Z" fill="#5bbba4" stroke-width="0"/>
    <path d="m473.84,284.53h60.08l45.06,136.36h-39.6c-1.95-5.98-3.97-11.96-6.05-17.95-2.21-6.37-4.1-12.29-5.66-17.75h-47.01c-3.25,10.14-7.09,22.04-11.51,35.7h-40.38l45.06-136.36Zm55.13-52.51l6.88,13.56-53.49,18.72-2.86-5.54c19.61-10.7,36.1-19.61,49.48-26.75Zm-24.51,67.34h-.97c-4.68,20.42-10.73,43.44-18.14,69.06h37.65c-6.76-22.63-12.94-45.65-18.53-69.06Z" fill="#5bbba4" stroke-width="0"/>
    <path d="m680.82,419.72c-2.21-4.68-3.97-11.38-5.27-20.09l-1.37-8.58c-.91-5.2-2.31-9.46-4.19-12.78-1.89-3.31-4.68-5.82-8.39-7.51-3.71-1.69-8.42-2.54-14.14-2.54h-20.48v52.67h-36.87v-136.36h70.62c10.4,0,19.44,1.46,27.12,4.39,7.67,2.92,13.62,7.32,17.85,13.17,4.23,5.85,6.34,13.2,6.34,22.04,0,10.54-3.22,18.66-9.66,24.39-6.44,5.73-16.75,9.17-30.92,10.34v1.56c7.28.52,13.3,1.76,18.04,3.71,4.75,1.95,8.55,4.75,11.41,8.39,2.86,3.64,4.81,8.06,5.85,13.26l1.76,10.73c.78,4.42,1.75,8.65,2.93,12.68s2.54,7.93,4.1,11.7h-34.33c-.13-.39-.26-.78-.39-1.17Zm-7.51-72.08c3.45-2.66,5.17-6.53,5.17-11.61,0-5.46-1.75-9.33-5.27-11.61-3.51-2.27-8.65-3.41-15.41-3.41h-30.82v30.63h31.02c6.76,0,11.87-1.33,15.31-4Z" fill="#5bbba4" stroke-width="0"/>
  </g>
</svg>